<svg width="300" height="52" viewBox="0 0 300 52" fill="none" xmlns="http://www.w3.org/2000/svg">
<path fill-rule="evenodd" clip-rule="evenodd" d="M10.9977 10.9977H25.6853V0H0V25.6853C0 39.8666 11.5041 51.3707 25.6853 51.3707C39.8665 51.3707 51.3707 39.8666 51.3707 25.6853C51.3707 12.7583 41.8201 2.07412 29.3995 0.265294V11.4559C35.7183 13.0959 40.3971 18.8359 40.3971 25.6853C40.3971 33.813 33.813 40.373 25.7095 40.373C17.5818 40.373 11.0218 33.7889 11.0218 25.6853H25.7095V20.1865V14.7118H10.9977V10.9977Z" fill="#0554F2"/>
<path d="M75.3919 38.4677C73.5107 37.6719 72.0396 36.5142 71.0266 35.0189C69.9896 33.5236 69.4831 31.7871 69.4831 29.7854V28.7483C69.4831 28.5795 69.5313 28.4589 69.6519 28.3383C69.7725 28.2177 69.8931 28.1695 70.0619 28.1695H75.4643C75.6331 28.1695 75.7537 28.2177 75.8743 28.3383C75.9949 28.4589 76.0431 28.5795 76.0431 28.7483V29.4477C76.0431 30.7018 76.6219 31.763 77.8037 32.6313C78.9613 33.4995 80.5531 33.9336 82.5308 33.9336C84.1949 33.9336 85.449 33.5718 86.269 32.8724C87.089 32.173 87.499 31.2807 87.499 30.2436C87.499 29.496 87.2578 28.8448 86.7514 28.3383C86.2449 27.8077 85.5696 27.3495 84.7014 26.9636C83.8331 26.5777 82.4584 26.023 80.5531 25.3236C78.4308 24.6001 76.646 23.8524 75.1749 23.1048C73.7037 22.3571 72.4737 21.3201 71.4849 20.0177C70.496 18.7153 69.9896 17.0995 69.9896 15.17C69.9896 13.2889 70.4719 11.6247 71.4607 10.2018C72.4496 8.77886 73.8002 7.69356 75.5366 6.94591C77.2731 6.19826 79.2749 5.81238 81.5419 5.81238C83.9296 5.81238 86.0761 6.2465 87.9572 7.09062C89.8384 7.93474 91.3096 9.14062 92.3467 10.66C93.4078 12.1794 93.9384 13.9642 93.9384 15.99V16.6895C93.9384 16.8583 93.8902 16.9789 93.7696 17.0995C93.649 17.22 93.5284 17.2683 93.3596 17.2683H87.909C87.7402 17.2683 87.6196 17.22 87.499 17.0995C87.3784 16.9789 87.3302 16.8583 87.3302 16.6895V16.3036C87.3302 14.9771 86.7755 13.8436 85.6902 12.9271C84.6049 11.9865 83.1096 11.5283 81.2284 11.5283C79.7572 11.5283 78.5755 11.8418 77.7555 12.4689C76.9113 13.0959 76.5013 13.9642 76.5013 15.0736C76.5013 15.8695 76.7425 16.5206 77.2249 17.0512C77.7072 17.5818 78.4308 18.0642 79.3955 18.4983C80.3602 18.9324 81.8555 19.5112 83.8572 20.2348C86.1002 21.0548 87.8608 21.7783 89.139 22.4053C90.4173 23.0324 91.5749 23.973 92.5878 25.2271C93.6008 26.4812 94.1314 28.0971 94.1314 30.0748C94.1314 33.0413 93.0461 35.3807 90.8755 37.093C88.7049 38.8054 85.7384 39.6736 82.0243 39.6736C79.4919 39.6977 77.2972 39.2877 75.3919 38.4677Z" fill="black"/>
<path d="M120.95 27.2048C120.95 29.3754 120.661 31.353 120.058 33.1136C119.334 35.1395 118.201 36.7313 116.633 37.913C115.065 39.0948 113.136 39.6978 110.845 39.6978C108.578 39.6978 106.817 38.9019 105.539 37.3342C105.467 37.2378 105.418 37.2136 105.346 37.2378C105.274 37.2619 105.25 37.3342 105.25 37.4307V47.5601C105.25 47.729 105.201 47.8495 105.081 47.9701C104.96 48.0907 104.84 48.139 104.671 48.139H99.1236C98.9548 48.139 98.8342 48.0907 98.7136 47.9701C98.593 47.8495 98.5448 47.729 98.5448 47.5601V15.5559C98.5448 15.3871 98.593 15.2665 98.7136 15.1459C98.8342 15.0254 98.9548 14.9771 99.1236 14.9771H104.671C104.84 14.9771 104.96 15.0254 105.081 15.1459C105.201 15.2665 105.25 15.3871 105.25 15.5559V17.1236C105.25 17.2201 105.274 17.2683 105.346 17.2924C105.418 17.3165 105.467 17.2924 105.539 17.2201C106.865 15.4836 108.698 14.6154 111.038 14.6154C113.208 14.6154 115.09 15.2183 116.681 16.4483C118.273 17.6542 119.407 19.3665 120.106 21.5371C120.661 23.1289 120.95 25.0101 120.95 27.2048ZM114.052 27.1083C114.052 25.1307 113.715 23.5389 113.064 22.3813C112.34 21.0307 111.182 20.3554 109.567 20.3554C108.12 20.3554 107.034 21.0307 106.311 22.3813C105.66 23.5148 105.322 25.1066 105.322 27.1566C105.322 29.2789 105.66 30.9189 106.359 32.0766C107.082 33.3307 108.168 33.9577 109.567 33.9577C110.965 33.9577 112.099 33.3548 112.871 32.1248C113.642 30.8948 114.052 29.2066 114.052 27.1083Z" fill="black"/>
<path d="M129.03 37.5995C127.148 36.2007 125.846 34.3195 125.147 31.9319C124.713 30.4607 124.495 28.8448 124.495 27.1083C124.495 25.2513 124.713 23.5871 125.147 22.0918C125.87 19.7524 127.173 17.9195 129.078 16.593C130.959 15.2665 133.25 14.6154 135.879 14.6154C138.46 14.6154 140.678 15.2665 142.511 16.5689C144.344 17.8712 145.623 19.7042 146.394 22.0436C146.901 23.6113 147.142 25.2754 147.142 27.0119C147.142 28.7242 146.925 30.316 146.491 31.7872C145.791 34.2472 144.513 36.1766 142.632 37.5754C140.751 38.9742 138.484 39.6736 135.855 39.6736C133.226 39.6736 130.935 38.9983 129.03 37.5995ZM138.508 33.0172C139.231 32.3901 139.762 31.5219 140.076 30.4124C140.317 29.3995 140.461 28.2901 140.461 27.1083C140.461 25.7818 140.341 24.6724 140.076 23.756C139.738 22.6948 139.183 21.8507 138.46 21.2477C137.736 20.6448 136.844 20.3554 135.807 20.3554C134.746 20.3554 133.853 20.6448 133.13 21.2477C132.43 21.8507 131.9 22.6948 131.586 23.756C131.345 24.5036 131.2 25.6371 131.2 27.1083C131.2 28.5313 131.321 29.6407 131.538 30.4124C131.851 31.5219 132.382 32.3901 133.13 33.0172C133.877 33.6442 134.77 33.9577 135.855 33.9577C136.892 33.9577 137.784 33.6442 138.508 33.0172Z" fill="black"/>
<path d="M170.247 16.9306C171.79 18.4742 172.562 20.5724 172.562 23.2254V38.733C172.562 38.9019 172.514 39.0225 172.393 39.143C172.273 39.2636 172.152 39.3119 171.983 39.3119H166.436C166.267 39.3119 166.147 39.2636 166.026 39.143C165.906 39.0225 165.857 38.9019 165.857 38.733V24.6001C165.857 23.346 165.496 22.3089 164.796 21.513C164.097 20.7171 163.156 20.3312 161.974 20.3312C160.817 20.3312 159.876 20.7171 159.153 21.513C158.453 22.3089 158.091 23.3218 158.091 24.6001V38.7572C158.091 38.926 158.043 39.0466 157.923 39.1672C157.802 39.2877 157.681 39.336 157.513 39.336H151.966C151.797 39.336 151.676 39.2877 151.556 39.1672C151.435 39.0466 151.387 38.926 151.387 38.7572V15.5801C151.387 15.4112 151.435 15.2906 151.556 15.1701C151.676 15.0495 151.797 15.0012 151.966 15.0012H157.513C157.681 15.0012 157.802 15.0495 157.923 15.1701C158.043 15.2906 158.091 15.4112 158.091 15.5801V17.2442C158.091 17.3406 158.116 17.413 158.188 17.4371C158.26 17.4612 158.309 17.4612 158.333 17.3889C159.635 15.5559 161.54 14.6395 164.097 14.6395C166.677 14.6153 168.703 15.3871 170.247 16.9306Z" fill="black"/>
<path d="M192.459 6.36707C192.58 6.24648 192.7 6.19824 192.869 6.19824H198.416C198.585 6.19824 198.706 6.24648 198.826 6.36707C198.947 6.48766 198.995 6.60824 198.995 6.77707V38.7571C198.995 38.926 198.947 39.0465 198.826 39.1671C198.706 39.2877 198.585 39.336 198.416 39.336H192.869C192.7 39.336 192.58 39.2877 192.459 39.1671C192.339 39.0465 192.29 38.926 192.29 38.7571V37.1895C192.29 37.093 192.266 37.0448 192.194 37.0207C192.121 36.9965 192.073 37.0207 192.001 37.093C190.674 38.8295 188.866 39.6977 186.55 39.6977C184.331 39.6977 182.45 39.0707 180.859 37.8407C179.267 36.6107 178.133 34.9224 177.434 32.7759C176.903 31.1359 176.638 29.2306 176.638 27.06C176.638 24.8171 176.927 22.8636 177.482 21.1994C178.206 19.1736 179.339 17.5818 180.907 16.4C182.474 15.2183 184.404 14.6153 186.695 14.6153C188.962 14.6153 190.723 15.4112 192.001 16.9789C192.073 17.0753 192.121 17.0994 192.194 17.0753C192.266 17.0512 192.29 16.9789 192.29 16.8824V6.75295C192.29 6.60824 192.339 6.46354 192.459 6.36707ZM192.242 27.1565C192.242 25.0342 191.904 23.3942 191.205 22.1883C190.482 20.9583 189.42 20.3553 188.046 20.3553C186.574 20.3553 185.441 20.9583 184.693 22.1883C183.897 23.4183 183.511 25.0824 183.511 27.2048C183.511 29.0859 183.849 30.6777 184.5 31.9318C185.296 33.2824 186.454 33.9577 187.997 33.9577C189.42 33.9577 190.53 33.2824 191.301 31.9318C191.929 30.7501 192.242 29.1583 192.242 27.1565Z" fill="black"/>
<path d="M227.647 6.36701C227.767 6.4876 227.816 6.60819 227.816 6.77701V11.4076C227.816 11.5764 227.767 11.697 227.647 11.8176C227.526 11.9382 227.406 11.9864 227.237 11.9864H218.772C218.603 11.9864 218.53 12.0588 218.53 12.2276V38.7571C218.53 38.9259 218.482 39.0465 218.362 39.1671C218.241 39.2877 218.12 39.3359 217.952 39.3359H212.404C212.236 39.3359 212.115 39.2877 211.994 39.1671C211.874 39.0465 211.826 38.9259 211.826 38.7571V12.2276C211.826 12.0588 211.753 11.9864 211.584 11.9864H203.36C203.191 11.9864 203.071 11.9382 202.95 11.8176C202.83 11.697 202.781 11.5764 202.781 11.4076V6.7529C202.781 6.58407 202.83 6.46349 202.95 6.3429C203.071 6.22231 203.191 6.17407 203.36 6.17407H227.213C227.406 6.19819 227.55 6.24643 227.647 6.36701Z" fill="black"/>
<path d="M249.401 28.6519C249.377 29.0378 249.16 29.2307 248.774 29.2307H234.159C233.966 29.2307 233.918 29.303 233.966 29.4719C234.062 30.0989 234.231 30.726 234.496 31.3531C235.316 33.1136 236.98 34.006 239.513 34.006C241.539 33.9819 243.13 33.1619 244.288 31.546C244.409 31.3531 244.553 31.2566 244.722 31.2566C244.819 31.2566 244.915 31.3289 245.06 31.4495L248.46 34.8019C248.629 34.9707 248.702 35.0913 248.702 35.236C248.702 35.3084 248.629 35.4289 248.509 35.6219C247.472 36.9242 246.121 37.9131 244.481 38.6366C242.841 39.336 241.032 39.6978 239.079 39.6978C236.378 39.6978 234.062 39.0707 232.205 37.8407C230.324 36.6107 228.973 34.8984 228.153 32.6795C227.502 31.1119 227.165 29.0378 227.165 26.4813C227.165 24.7448 227.406 23.2254 227.864 21.8989C228.588 19.656 229.866 17.8713 231.675 16.5448C233.483 15.2183 235.63 14.5671 238.138 14.5671C241.298 14.5671 243.83 15.4836 245.735 17.3166C247.64 19.1495 248.798 21.5854 249.208 24.6483C249.401 25.8301 249.449 27.1807 249.401 28.6519ZM234.255 23.1289C234.135 23.5389 234.014 24.0454 233.918 24.6483C233.918 24.8172 233.99 24.8895 234.159 24.8895H242.335C242.528 24.8895 242.576 24.8172 242.528 24.6483C242.359 23.7319 242.286 23.2977 242.286 23.3219C241.997 22.3813 241.515 21.6336 240.791 21.1272C240.068 20.6207 239.199 20.3554 238.162 20.3554C236.185 20.3313 234.882 21.2719 234.255 23.1289Z" fill="black"/>
<path d="M257.649 37.7924C255.792 36.5383 254.49 34.8018 253.694 32.583C253.163 31.0153 252.898 29.1342 252.898 27.0118C252.898 24.8894 253.163 23.0806 253.694 21.513C254.442 19.3665 255.768 17.6783 257.625 16.4482C259.482 15.2182 261.677 14.5912 264.209 14.5912C266.742 14.5912 268.936 15.2182 270.866 16.4724C272.771 17.7265 274.049 19.3183 274.676 21.2477C274.918 21.9953 275.062 22.5741 275.062 22.96V23.0565C275.062 23.3459 274.893 23.5147 274.58 23.5871L269.129 24.383H269.033C268.743 24.383 268.55 24.2141 268.454 23.9006L268.309 23.153C268.092 22.333 267.61 21.6577 266.838 21.1271C266.09 20.5965 265.174 20.3312 264.137 20.3312C263.124 20.3312 262.28 20.5724 261.58 21.0788C260.881 21.5853 260.399 22.2847 260.109 23.153C259.772 24.0936 259.579 25.3959 259.579 27.0359C259.579 28.6759 259.747 29.9783 260.061 30.9189C260.35 31.8595 260.833 32.6071 261.556 33.1377C262.256 33.6683 263.124 33.9336 264.137 33.9336C265.126 33.9336 265.97 33.6683 266.718 33.1618C267.465 32.6312 267.972 31.9318 268.261 31.0153C268.285 30.943 268.309 30.8465 268.309 30.7259C268.333 30.7018 268.358 30.6536 268.358 30.5812C268.382 30.1953 268.599 30.0506 269.009 30.0989L274.459 30.943C274.773 31.0153 274.942 31.1842 274.942 31.4736C274.942 31.7148 274.845 32.1971 274.652 32.8965C274.001 35.0189 272.699 36.6589 270.793 37.8648C268.888 39.0706 266.693 39.6736 264.185 39.6736C261.677 39.6977 259.482 39.0465 257.649 37.7924Z" fill="black"/>
<path d="M297.685 16.9306C299.228 18.4741 300 20.5723 300 23.2253V38.733C300 38.9018 299.952 39.0224 299.831 39.143C299.711 39.2636 299.59 39.3118 299.421 39.3118H293.874C293.705 39.3118 293.585 39.2636 293.464 39.143C293.343 39.0224 293.295 38.9018 293.295 38.733V24.6C293.295 23.3459 292.933 22.3088 292.234 21.5129C291.535 20.717 290.594 20.3312 289.412 20.3312C288.255 20.3312 287.314 20.717 286.59 21.5129C285.891 22.3088 285.529 23.3218 285.529 24.6V38.7571C285.529 38.9259 285.481 39.0465 285.36 39.1671C285.24 39.2877 285.119 39.3359 284.95 39.3359H279.403C279.235 39.3359 279.114 39.2877 278.993 39.1671C278.873 39.0465 278.825 38.9259 278.825 38.7571V6.7529C278.825 6.58407 278.873 6.46349 278.993 6.3429C279.114 6.22231 279.235 6.17407 279.403 6.17407H284.95C285.119 6.17407 285.24 6.22231 285.36 6.3429C285.481 6.46349 285.529 6.58407 285.529 6.7529V17.22C285.529 17.3164 285.553 17.3888 285.626 17.4129C285.698 17.437 285.746 17.437 285.77 17.3647C287.073 15.5317 288.978 14.6153 291.535 14.6153C294.115 14.6153 296.141 15.387 297.685 16.9306Z" fill="black"/>
</svg>
