<svg width="301" height="53" viewBox="0 0 301 53" fill="none" xmlns="http://www.w3.org/2000/svg">
<path fill-rule="evenodd" clip-rule="evenodd" d="M11.8977 11.9607H26.5854V0.963013H0.900024V26.6484C0.900024 40.8296 12.4042 52.3337 26.5854 52.3337C40.7666 52.3337 52.2707 40.8296 52.2707 26.6484C52.2707 13.7213 42.7201 3.03713 30.2995 1.22831V12.4189C36.6183 14.0589 41.2972 19.7989 41.2972 26.6484C41.2972 34.776 34.713 41.336 26.6095 41.336C18.4818 41.336 11.9218 34.7519 11.9218 26.6484H26.6095V21.1495V15.6748H11.8977V11.9607Z" fill="#0554F2"/>
<path d="M76.2919 39.4307C74.4107 38.6349 72.9395 37.4772 71.9266 35.9819C70.8895 34.4866 70.3831 32.7501 70.3831 30.7484V29.7113C70.3831 29.5425 70.4313 29.4219 70.5519 29.3013C70.6725 29.1807 70.7931 29.1325 70.9619 29.1325H76.3642C76.5331 29.1325 76.6537 29.1807 76.7742 29.3013C76.8948 29.4219 76.9431 29.5425 76.9431 29.7113V30.4107C76.9431 31.6649 77.5219 32.726 78.7037 33.5943C79.8613 34.4625 81.4531 34.8966 83.4307 34.8966C85.0949 34.8966 86.349 34.5349 87.169 33.8354C87.989 33.136 88.399 32.2437 88.399 31.2066C88.399 30.459 88.1578 29.8078 87.6513 29.3013C87.1449 28.7707 86.4696 28.3125 85.6013 27.9266C84.7331 27.5407 83.3584 26.986 81.4531 26.2866C79.3307 25.5631 77.546 24.8154 76.0748 24.0678C74.6037 23.3201 73.3736 22.2831 72.3848 20.9807C71.396 19.6784 70.8895 18.0625 70.8895 16.1331C70.8895 14.2519 71.3719 12.5878 72.3607 11.1648C73.3495 9.74187 74.7001 8.65657 76.4366 7.90892C78.1731 7.16127 80.1748 6.77539 82.4419 6.77539C84.8296 6.77539 86.976 7.20951 88.8572 8.05363C90.7384 8.89775 92.2096 10.1036 93.2466 11.623C94.3078 13.1425 94.8384 14.9272 94.8384 16.9531V17.6525C94.8384 17.8213 94.7902 17.9419 94.6696 18.0625C94.549 18.1831 94.4284 18.2313 94.2596 18.2313H88.809C88.6402 18.2313 88.5196 18.1831 88.399 18.0625C88.2784 17.9419 88.2302 17.8213 88.2302 17.6525V17.2666C88.2302 15.9401 87.6754 14.8066 86.5901 13.8901C85.5048 12.9495 84.0096 12.4913 82.1284 12.4913C80.6572 12.4913 79.4754 12.8048 78.6554 13.4319C77.8113 14.0589 77.4013 14.9272 77.4013 16.0366C77.4013 16.8325 77.6425 17.4836 78.1248 18.0142C78.6072 18.5448 79.3307 19.0272 80.2954 19.4613C81.2601 19.8954 82.7554 20.4742 84.7572 21.1978C87.0002 22.0178 88.7607 22.7413 90.039 23.3684C91.3172 23.9954 92.4749 24.936 93.4878 26.1901C94.5007 27.4443 95.0313 29.0601 95.0313 31.0378C95.0313 34.0043 93.946 36.3437 91.7754 38.056C89.6049 39.7684 86.6384 40.6366 82.9243 40.6366C80.3919 40.6366 78.1731 40.2266 76.2919 39.4307Z" fill="white"/>
<path d="M121.85 28.1437C121.85 30.3143 121.561 32.2919 120.958 34.0525C120.234 36.0784 119.101 37.6702 117.533 38.8519C115.966 40.0337 114.036 40.6367 111.745 40.6367C109.478 40.6367 107.717 39.8408 106.439 38.2731C106.367 38.1766 106.318 38.1525 106.246 38.1766C106.174 38.2008 106.15 38.2731 106.15 38.3696V48.499C106.15 48.6678 106.101 48.7884 105.981 48.909C105.86 49.0296 105.74 49.0778 105.571 49.0778H100.024C99.8549 49.0778 99.7344 49.0296 99.6138 48.909C99.4932 48.7884 99.4449 48.6678 99.4449 48.499V16.519C99.4449 16.3501 99.4932 16.2295 99.6138 16.109C99.7344 15.9884 99.8549 15.9401 100.024 15.9401H105.571C105.74 15.9401 105.86 15.9884 105.981 16.109C106.101 16.2295 106.15 16.3501 106.15 16.519V18.0866C106.15 18.1831 106.174 18.2313 106.246 18.2554C106.318 18.2796 106.367 18.2554 106.439 18.1831C107.766 16.4466 109.598 15.5784 111.938 15.5784C114.109 15.5784 115.99 16.1813 117.581 17.4113C119.173 18.6172 120.307 20.3296 121.006 22.5001C121.561 24.0919 121.85 25.9731 121.85 28.1437ZM114.929 28.0472C114.929 26.0696 114.591 24.4778 113.94 23.3201C113.216 21.9696 112.059 21.2943 110.443 21.2943C108.996 21.2943 107.91 21.9696 107.187 23.3201C106.536 24.4537 106.198 26.0454 106.198 28.0955C106.198 30.2178 106.536 31.8578 107.235 33.0155C107.958 34.2696 109.044 34.8966 110.443 34.8966C111.841 34.8966 112.975 34.2937 113.747 33.0637C114.543 31.8337 114.929 30.1696 114.929 28.0472Z" fill="white"/>
<path d="M129.93 38.5625C128.048 37.1637 126.746 35.2825 126.047 32.8949C125.613 31.4237 125.396 29.8078 125.396 28.0713C125.396 26.2143 125.613 24.5502 126.047 23.0549C126.77 20.7154 128.073 18.8825 129.978 17.556C131.859 16.2295 134.15 15.5784 136.779 15.5784C139.36 15.5784 141.578 16.2295 143.411 17.5319C145.244 18.8343 146.523 20.6672 147.294 23.0066C147.801 24.5743 148.042 26.2384 148.042 27.9749C148.042 29.6872 147.825 31.279 147.391 32.7502C146.691 35.2102 145.413 37.1396 143.532 38.5384C141.651 39.9372 139.384 40.6367 136.755 40.6367C134.126 40.6367 131.835 39.9372 129.93 38.5625ZM139.408 33.9802C140.131 33.3531 140.662 32.4849 140.976 31.3755C141.217 30.3625 141.361 29.2531 141.361 28.0713C141.361 26.7449 141.241 25.6354 140.976 24.719C140.638 23.6578 140.083 22.8137 139.36 22.2107C138.636 21.6078 137.744 21.3184 136.707 21.3184C135.646 21.3184 134.753 21.6078 134.03 22.2107C133.33 22.8137 132.8 23.6578 132.486 24.719C132.245 25.4666 132.1 26.6002 132.1 28.0713C132.1 29.4943 132.221 30.6037 132.438 31.3755C132.751 32.4849 133.282 33.3531 134.03 33.9802C134.777 34.6072 135.67 34.9208 136.755 34.9208C137.792 34.9208 138.66 34.6072 139.408 33.9802Z" fill="white"/>
<path d="M171.147 17.8937C172.69 19.4372 173.462 21.5354 173.462 24.1884V39.6961C173.462 39.8649 173.414 39.9855 173.293 40.1061C173.173 40.2267 173.052 40.2749 172.883 40.2749H167.336C167.167 40.2749 167.047 40.2267 166.926 40.1061C166.806 39.9855 166.757 39.8649 166.757 39.6961V25.539C166.757 24.2849 166.396 23.2478 165.696 22.4519C164.997 21.656 164.056 21.2701 162.874 21.2701C161.717 21.2701 160.776 21.656 160.053 22.4519C159.353 23.2478 158.991 24.2607 158.991 25.539V39.6961C158.991 39.8649 158.943 39.9855 158.823 40.1061C158.702 40.2267 158.581 40.2749 158.413 40.2749H152.866C152.697 40.2749 152.576 40.2267 152.456 40.1061C152.335 39.9855 152.287 39.8649 152.287 39.6961V16.519C152.287 16.3501 152.335 16.2295 152.456 16.109C152.576 15.9884 152.697 15.9401 152.866 15.9401H158.413C158.581 15.9401 158.702 15.9884 158.823 16.109C158.943 16.2295 158.991 16.3501 158.991 16.519V18.1831C158.991 18.2796 159.016 18.3519 159.088 18.376C159.16 18.4001 159.209 18.4001 159.233 18.3278C160.535 16.4948 162.44 15.5784 164.997 15.5784C167.553 15.5784 169.603 16.3501 171.147 17.8937Z" fill="white"/>
<path d="M193.359 7.30591C193.48 7.18532 193.6 7.13708 193.769 7.13708H199.316C199.485 7.13708 199.606 7.18532 199.726 7.30591C199.847 7.4265 199.895 7.54709 199.895 7.71591V39.696C199.895 39.8648 199.847 39.9854 199.726 40.106C199.606 40.2266 199.485 40.2748 199.316 40.2748H193.769C193.6 40.2748 193.48 40.2266 193.359 40.106C193.239 39.9854 193.19 39.8648 193.19 39.696V38.1283C193.19 38.0319 193.166 37.9836 193.094 37.9595C193.022 37.9354 192.973 37.9595 192.901 38.0319C191.574 39.7683 189.766 40.6366 187.45 40.6366C185.232 40.6366 183.35 40.0095 181.759 38.7795C180.167 37.5495 179.033 35.8613 178.334 33.7148C177.803 32.0748 177.538 30.1695 177.538 27.9989C177.538 25.7559 177.827 23.8024 178.382 22.1383C179.106 20.1124 180.239 18.5206 181.807 17.3389C183.374 16.1571 185.304 15.5542 187.595 15.5542C189.862 15.5542 191.623 16.35 192.901 17.9177C192.973 18.0142 193.022 18.0383 193.094 18.0142C193.166 17.99 193.19 17.9177 193.19 17.8212V7.71591C193.19 7.54709 193.239 7.4265 193.359 7.30591ZM193.142 28.0954C193.142 25.973 192.804 24.333 192.105 23.1271C191.382 21.8971 190.32 21.2942 188.946 21.2942C187.474 21.2942 186.341 21.8971 185.593 23.1271C184.797 24.3571 184.412 26.0212 184.412 28.1436C184.412 30.0248 184.749 31.6165 185.4 32.8707C186.196 34.2213 187.354 34.8965 188.897 34.8965C190.32 34.8965 191.43 34.2213 192.202 32.8707C192.829 31.713 193.142 30.1212 193.142 28.0954Z" fill="white"/>
<path d="M228.547 7.30591C228.667 7.4265 228.716 7.54709 228.716 7.71591V12.3465C228.716 12.5153 228.667 12.6359 228.547 12.7565C228.426 12.8771 228.306 12.9253 228.137 12.9253H219.672C219.503 12.9253 219.43 12.9977 219.43 13.1665V39.696C219.43 39.8648 219.382 39.9854 219.262 40.106C219.141 40.2266 219.02 40.2748 218.852 40.2748H213.304C213.136 40.2748 213.015 40.2266 212.894 40.106C212.774 39.9854 212.726 39.8648 212.726 39.696V13.1665C212.726 12.9977 212.653 12.9253 212.484 12.9253H204.26C204.092 12.9253 203.971 12.8771 203.85 12.7565C203.73 12.6359 203.682 12.5153 203.682 12.3465V7.71591C203.682 7.54709 203.73 7.4265 203.85 7.30591C203.971 7.18532 204.092 7.13708 204.26 7.13708H228.113C228.306 7.13708 228.45 7.20944 228.547 7.30591Z" fill="white"/>
<path d="M250.277 29.6148C250.253 30.0007 250.036 30.1936 249.65 30.1936H235.035C234.842 30.1936 234.793 30.266 234.842 30.4348C234.938 31.0619 235.107 31.6889 235.372 32.316C236.192 34.0766 237.856 34.969 240.389 34.969C242.415 34.9448 244.006 34.1248 245.164 32.5089C245.285 32.316 245.429 32.2195 245.598 32.2195C245.695 32.2195 245.791 32.2919 245.936 32.4125L249.336 35.7648C249.505 35.9337 249.578 36.0542 249.578 36.199C249.578 36.2713 249.505 36.3919 249.385 36.5848C248.348 37.8872 246.997 38.876 245.357 39.5995C243.717 40.299 241.908 40.6607 239.955 40.6607C237.253 40.6607 234.938 40.0337 233.081 38.8037C231.2 37.5737 229.849 35.8613 229.029 33.6425C228.378 32.0748 228.04 30.0007 228.04 27.4442C228.04 25.7078 228.282 24.1883 228.74 22.8619C229.463 20.6189 230.742 18.8342 232.55 17.5077C234.359 16.1813 236.506 15.5301 239.014 15.5301C242.173 15.5301 244.706 16.4466 246.611 18.2795C248.516 20.1125 249.674 22.5483 250.084 25.6113C250.277 26.7931 250.349 28.1436 250.277 29.6148ZM235.155 24.0919C235.035 24.5019 234.914 25.0083 234.817 25.6113C234.817 25.7801 234.89 25.8525 235.059 25.8525H243.235C243.428 25.8525 243.476 25.7801 243.427 25.6113C243.259 24.6948 243.186 24.2607 243.186 24.2848C242.897 23.3442 242.415 22.5966 241.691 22.0901C240.967 21.5836 240.099 21.3183 239.062 21.3183C237.085 21.2942 235.782 22.2107 235.155 24.0919Z" fill="white"/>
<path d="M258.549 38.7555C256.692 37.5014 255.39 35.7649 254.594 33.5461C254.064 31.9784 253.798 30.0972 253.798 27.9749C253.798 25.8525 254.064 24.0437 254.594 22.476C255.342 20.3296 256.668 18.6413 258.525 17.4113C260.382 16.1813 262.577 15.5543 265.109 15.5543C267.642 15.5543 269.836 16.1813 271.766 17.4354C273.671 18.6896 274.949 20.2813 275.577 22.2107C275.818 22.9584 275.962 23.5372 275.962 23.9231V24.0196C275.962 24.309 275.794 24.4778 275.48 24.5502L270.029 25.346H269.933C269.644 25.346 269.451 25.1772 269.354 24.8637L269.209 24.116C268.992 23.296 268.51 22.6207 267.738 22.0902C266.991 21.5596 266.074 21.2943 265.037 21.2943C264.024 21.2943 263.18 21.5354 262.481 22.0419C261.781 22.5484 261.299 23.2478 261.009 24.116C260.672 25.0566 260.479 26.359 260.479 27.999C260.479 29.639 260.648 30.9413 260.961 31.8819C261.251 32.8225 261.733 33.5702 262.456 34.1008C263.156 34.6314 264.024 34.8967 265.037 34.8967C266.026 34.8967 266.87 34.6314 267.618 34.1249C268.365 33.5943 268.872 32.8949 269.161 31.9784C269.185 31.9061 269.209 31.8096 269.209 31.689C269.234 31.6649 269.258 31.6166 269.258 31.5443C269.282 31.1584 269.499 31.0137 269.909 31.0619L275.359 31.9061C275.673 31.9784 275.842 32.1472 275.842 32.4366C275.842 32.6778 275.745 33.1602 275.552 33.8596C274.901 35.9819 273.599 37.622 271.694 38.8278C269.788 40.0337 267.594 40.6367 265.085 40.6367C262.577 40.6367 260.382 40.0096 258.549 38.7555Z" fill="white"/>
<path d="M298.585 17.8936C300.128 19.4371 300.9 21.5353 300.9 24.1883V39.696C300.9 39.8648 300.852 39.9854 300.731 40.106C300.611 40.2266 300.49 40.2748 300.321 40.2748H294.774C294.605 40.2748 294.485 40.2266 294.364 40.106C294.244 39.9854 294.195 39.8648 294.195 39.696V25.5389C294.195 24.2848 293.834 23.2477 293.134 22.4518C292.435 21.6559 291.494 21.2701 290.312 21.2701C289.155 21.2701 288.214 21.6559 287.491 22.4518C286.791 23.2477 286.429 24.2606 286.429 25.5389V39.696C286.429 39.8648 286.381 39.9854 286.261 40.106C286.14 40.2266 286.019 40.2748 285.851 40.2748H280.304C280.135 40.2748 280.014 40.2266 279.894 40.106C279.773 39.9854 279.725 39.8648 279.725 39.696V7.71591C279.725 7.54709 279.773 7.4265 279.894 7.30591C280.014 7.18532 280.135 7.13708 280.304 7.13708H285.851C286.019 7.13708 286.14 7.18532 286.261 7.30591C286.381 7.4265 286.429 7.54709 286.429 7.71591V18.183C286.429 18.2795 286.454 18.3518 286.526 18.3759C286.598 18.4 286.647 18.4 286.671 18.3277C287.973 16.4948 289.878 15.5783 292.435 15.5783C295.015 15.5783 297.041 16.35 298.585 17.8936Z" fill="white"/>
</svg>
