<svg width="300" height="52" viewBox="0 0 300 52" fill="none" xmlns="http://www.w3.org/2000/svg">
<path fill-rule="evenodd" clip-rule="evenodd" d="M10.9977 10.9736H25.6853V0H0V25.6853C0 39.8424 11.5041 51.3466 25.6853 51.3466C39.8666 51.3466 51.3707 39.8424 51.3707 25.6612C51.3707 12.7341 41.8201 2.05 29.3995 0.241177V11.4318C35.7183 13.0718 40.3971 18.8118 40.3971 25.6612C40.3971 33.7889 33.813 40.3489 25.7095 40.3489C17.5818 40.3489 11.0218 33.7648 11.0218 25.6612H25.7095V20.1624V14.6877H10.9977V10.9736Z" fill="white"/>
<path d="M75.3919 38.4677C73.5107 37.6719 72.0396 36.5142 71.0266 35.0189C69.9896 33.5236 69.4831 31.7871 69.4831 29.7854V28.7483C69.4831 28.5795 69.5313 28.4589 69.6519 28.3383C69.7725 28.2177 69.8931 28.1695 70.0619 28.1695H75.4643C75.6331 28.1695 75.7537 28.2177 75.8743 28.3383C75.9949 28.4589 76.0431 28.5795 76.0431 28.7483V29.4477C76.0431 30.7018 76.6219 31.763 77.8037 32.6313C78.9613 33.4995 80.5531 33.9336 82.5308 33.9336C84.1949 33.9336 85.449 33.5718 86.269 32.8724C87.089 32.173 87.499 31.2807 87.499 30.2436C87.499 29.496 87.2578 28.8448 86.7514 28.3383C86.2449 27.8077 85.5696 27.3495 84.7014 26.9636C83.8331 26.5777 82.4584 26.023 80.5531 25.3236C78.4308 24.6001 76.646 23.8524 75.1749 23.1048C73.7037 22.3571 72.4737 21.3201 71.4849 20.0177C70.496 18.7153 69.9896 17.0995 69.9896 15.17C69.9896 13.2889 70.4719 11.6247 71.4607 10.2018C72.4496 8.77886 73.8002 7.69356 75.5366 6.94591C77.2731 6.19826 79.2749 5.81238 81.5419 5.81238C83.9296 5.81238 86.0761 6.2465 87.9572 7.09062C89.8384 7.93474 91.3096 9.14062 92.3467 10.66C93.4078 12.1795 93.9384 13.9642 93.9384 15.99V16.6895C93.9384 16.8583 93.8902 16.9789 93.7696 17.0995C93.649 17.22 93.5284 17.2683 93.3596 17.2683H87.909C87.7402 17.2683 87.6196 17.22 87.499 17.0995C87.3784 16.9789 87.3302 16.8583 87.3302 16.6895V16.3036C87.3302 14.9771 86.7755 13.8436 85.6902 12.9271C84.6049 11.9865 83.1096 11.5283 81.2284 11.5283C79.7572 11.5283 78.5755 11.8418 77.7555 12.4689C76.9113 13.0959 76.5013 13.9642 76.5013 15.0736C76.5013 15.8695 76.7425 16.5206 77.2249 17.0512C77.7072 17.5818 78.4308 18.0642 79.3955 18.4983C80.3602 18.9324 81.8555 19.5112 83.8572 20.2348C86.1002 21.0548 87.8608 21.7783 89.139 22.4054C90.4173 23.0324 91.5749 23.973 92.5878 25.2271C93.6008 26.4812 94.1314 28.0971 94.1314 30.0748C94.1314 33.0413 93.0461 35.3807 90.8755 37.093C88.7049 38.8054 85.7384 39.6736 82.0243 39.6736C79.4919 39.6736 77.2731 39.2636 75.3919 38.4677Z" fill="white"/>
<path d="M120.95 27.1806C120.95 29.3512 120.661 31.3289 120.058 33.0895C119.334 35.1153 118.201 36.7071 116.633 37.8889C115.065 39.0706 113.136 39.6736 110.845 39.6736C108.578 39.6736 106.817 38.8777 105.539 37.3101C105.467 37.2136 105.418 37.1895 105.346 37.2136C105.274 37.2377 105.25 37.3101 105.25 37.4065V47.536C105.25 47.7048 105.201 47.8254 105.081 47.946C104.96 48.0665 104.84 48.1148 104.671 48.1148H99.1237C98.9549 48.1148 98.8343 48.0665 98.7137 47.946C98.5931 47.8254 98.5449 47.7048 98.5449 47.536V15.5318C98.5449 15.363 98.5931 15.2424 98.7137 15.1218C98.8343 15.0012 98.9549 14.953 99.1237 14.953H104.671C104.84 14.953 104.96 15.0012 105.081 15.1218C105.201 15.2424 105.25 15.363 105.25 15.5318V17.0994C105.25 17.1959 105.274 17.2441 105.346 17.2683C105.418 17.2924 105.467 17.2683 105.539 17.1959C106.865 15.4594 108.698 14.5912 111.038 14.5912C113.208 14.5912 115.09 15.1941 116.681 16.4241C118.273 17.63 119.407 19.3424 120.106 21.513C120.661 23.1047 120.95 25.01 120.95 27.1806ZM114.028 27.0842C114.028 25.1065 113.691 23.5147 113.04 22.3571C112.316 21.0065 111.158 20.3312 109.543 20.3312C108.095 20.3312 107.01 21.0065 106.287 22.3571C105.635 23.4906 105.298 25.0824 105.298 27.1324C105.298 29.2547 105.635 30.8947 106.335 32.0524C107.058 33.3065 108.144 33.9336 109.543 33.9336C110.941 33.9336 112.075 33.3306 112.847 32.1006C113.643 30.8706 114.028 29.2065 114.028 27.0842Z" fill="white"/>
<path d="M129.03 37.5995C127.148 36.2006 125.846 34.3195 125.147 31.9318C124.713 30.4606 124.495 28.8447 124.495 27.1083C124.495 25.2512 124.713 23.5871 125.147 22.0918C125.87 19.7524 127.173 17.9194 129.078 16.5929C130.959 15.2665 133.25 14.6153 135.879 14.6153C138.46 14.6153 140.678 15.2665 142.511 16.5688C144.344 17.8712 145.623 19.7041 146.394 22.0435C146.901 23.6112 147.142 25.2753 147.142 27.0118C147.142 28.7241 146.925 30.3159 146.491 31.7871C145.791 34.2471 144.513 36.1765 142.632 37.5753C140.751 38.9742 138.484 39.6736 135.855 39.6736C133.226 39.6736 130.935 38.9742 129.03 37.5995ZM138.508 32.993C139.231 32.3659 139.762 31.4977 140.076 30.3883C140.317 29.3753 140.461 28.2659 140.461 27.0841C140.461 25.7577 140.341 24.6483 140.076 23.7318C139.738 22.6706 139.183 21.8265 138.46 21.2235C137.736 20.6206 136.844 20.3312 135.807 20.3312C134.745 20.3312 133.853 20.6206 133.13 21.2235C132.43 21.8265 131.9 22.6706 131.586 23.7318C131.345 24.4794 131.2 25.613 131.2 27.0841C131.2 28.5071 131.321 29.6165 131.538 30.3883C131.851 31.4977 132.382 32.3659 133.13 32.993C133.877 33.62 134.77 33.9336 135.855 33.9336C136.892 33.9336 137.76 33.62 138.508 32.993Z" fill="white"/>
<path d="M170.247 16.9065C171.79 18.45 172.562 20.5482 172.562 23.2012V38.7089C172.562 38.8777 172.514 38.9983 172.393 39.1189C172.273 39.2395 172.152 39.2877 171.983 39.2877H166.436C166.267 39.2877 166.147 39.2395 166.026 39.1189C165.906 38.9983 165.857 38.8777 165.857 38.7089V24.5759C165.857 23.3218 165.496 22.2847 164.796 21.4888C164.097 20.693 163.156 20.3071 161.974 20.3071C160.817 20.3071 159.876 20.693 159.153 21.4888C158.453 22.2847 158.091 23.2977 158.091 24.5759V38.733C158.091 38.9018 158.043 39.0224 157.923 39.143C157.802 39.2636 157.681 39.3118 157.513 39.3118H151.966C151.797 39.3118 151.676 39.2636 151.556 39.143C151.435 39.0224 151.387 38.9018 151.387 38.733V15.5559C151.387 15.3871 151.435 15.2665 151.556 15.1459C151.676 15.0253 151.797 14.9771 151.966 14.9771H157.513C157.681 14.9771 157.802 15.0253 157.923 15.1459C158.043 15.2665 158.091 15.3871 158.091 15.5559V17.22C158.091 17.3165 158.116 17.3888 158.188 17.4129C158.26 17.4371 158.308 17.4371 158.333 17.3647C159.635 15.5318 161.54 14.6153 164.097 14.6153C166.653 14.5912 168.703 15.3629 170.247 16.9065Z" fill="white"/>
<path d="M192.459 6.34296C192.58 6.22237 192.7 6.17413 192.869 6.17413H198.416C198.585 6.17413 198.706 6.22237 198.826 6.34296C198.947 6.46355 198.995 6.58413 198.995 6.75296V38.733C198.995 38.9018 198.947 39.0224 198.826 39.143C198.706 39.2636 198.585 39.3118 198.416 39.3118H192.869C192.7 39.3118 192.58 39.2636 192.459 39.143C192.339 39.0224 192.29 38.9018 192.29 38.733V37.1654C192.29 37.0689 192.266 37.0207 192.194 36.9965C192.121 36.9724 192.073 36.9965 192.001 37.0689C190.674 38.8054 188.866 39.6736 186.55 39.6736C184.331 39.6736 182.45 39.0465 180.859 37.8165C179.267 36.5865 178.133 34.8983 177.434 32.7518C176.903 31.1118 176.638 29.2065 176.638 27.0359C176.638 24.793 176.927 22.8395 177.482 21.1753C178.206 19.1495 179.339 17.5577 180.907 16.3759C182.474 15.1942 184.404 14.5912 186.695 14.5912C188.962 14.5912 190.723 15.3871 192.001 16.9547C192.073 17.0512 192.121 17.0753 192.194 17.0512C192.266 17.0271 192.29 16.9547 192.29 16.8583V6.72884C192.29 6.58413 192.339 6.43943 192.459 6.34296ZM192.242 27.1324C192.242 25.0101 191.904 23.37 191.205 22.1642C190.481 20.9342 189.42 20.3312 188.046 20.3312C186.574 20.3312 185.441 20.9342 184.693 22.1642C183.897 23.3942 183.511 25.0583 183.511 27.1806C183.511 29.0618 183.849 30.6536 184.5 31.9077C185.296 33.2583 186.454 33.9336 187.997 33.9336C189.42 33.9336 190.53 33.2583 191.301 31.9077C191.929 30.7501 192.242 29.1583 192.242 27.1324Z" fill="white"/>
<path d="M227.647 6.34296C227.767 6.46355 227.816 6.58413 227.816 6.75296V11.3836C227.816 11.5524 227.767 11.673 227.647 11.7936C227.526 11.9141 227.406 11.9624 227.237 11.9624H218.772C218.603 11.9624 218.53 12.0347 218.53 12.2036V38.733C218.53 38.9018 218.482 39.0224 218.362 39.143C218.241 39.2636 218.12 39.3118 217.952 39.3118H212.404C212.236 39.3118 212.115 39.2636 211.994 39.143C211.874 39.0224 211.826 38.9018 211.826 38.733V12.2036C211.826 12.0347 211.753 11.9624 211.584 11.9624H203.36C203.192 11.9624 203.071 11.9141 202.95 11.7936C202.83 11.673 202.781 11.5524 202.781 11.3836V6.75296C202.781 6.58413 202.83 6.46355 202.95 6.34296C203.071 6.22237 203.192 6.17413 203.36 6.17413H227.213C227.406 6.17413 227.55 6.22237 227.647 6.34296Z" fill="white"/>
<path d="M249.377 28.6518C249.353 29.0377 249.136 29.2306 248.75 29.2306H234.135C233.942 29.2306 233.893 29.303 233.942 29.4718C234.038 30.0989 234.207 30.7259 234.472 31.353C235.292 33.1136 236.956 34.0059 239.489 34.0059C241.515 33.9818 243.106 33.1618 244.264 31.5459C244.385 31.353 244.529 31.2565 244.698 31.2565C244.795 31.2565 244.891 31.3289 245.036 31.4495L248.436 34.8018C248.605 34.9706 248.677 35.0912 248.677 35.2359C248.677 35.3083 248.605 35.4289 248.485 35.6218C247.447 36.9242 246.097 37.913 244.457 38.6365C242.817 39.3359 241.008 39.6977 239.055 39.6977C236.353 39.6977 234.038 39.0707 232.181 37.8407C230.3 36.6106 228.949 34.8983 228.129 32.6795C227.478 31.1118 227.14 29.0377 227.14 26.4812C227.14 24.7447 227.382 23.2253 227.84 21.8989C228.563 19.6559 229.842 17.8712 231.65 16.5447C233.459 15.2183 235.606 14.5671 238.114 14.5671C241.273 14.5671 243.806 15.4836 245.711 17.3165C247.616 19.1494 248.774 21.5853 249.184 24.6483C249.377 25.83 249.449 27.1565 249.377 28.6518ZM234.255 23.1047C234.135 23.5147 234.014 24.0212 233.917 24.6242C233.917 24.793 233.99 24.8653 234.159 24.8653H242.335C242.527 24.8653 242.576 24.793 242.527 24.6242C242.359 23.7077 242.286 23.2736 242.286 23.2977C241.997 22.3571 241.515 21.6094 240.791 21.103C240.067 20.5965 239.199 20.3312 238.162 20.3312C236.185 20.3312 234.882 21.2477 234.255 23.1047Z" fill="white"/>
<path d="M257.649 37.7683C255.792 36.5142 254.49 34.7777 253.694 32.5589C253.163 30.9912 252.898 29.11 252.898 26.9877C252.898 24.8653 253.163 23.0565 253.694 21.4889C254.442 19.3424 255.768 17.6541 257.625 16.4241C259.482 15.1941 261.677 14.5671 264.209 14.5671C266.742 14.5671 268.936 15.1941 270.866 16.4483C272.771 17.7024 274.049 19.2941 274.676 21.2236C274.918 21.9712 275.062 22.55 275.062 22.9359V23.0324C275.062 23.3218 274.893 23.4906 274.58 23.563L269.129 24.3589H269.033C268.743 24.3589 268.55 24.19 268.454 23.8765L268.309 23.1289C268.092 22.3089 267.61 21.6336 266.838 21.103C266.09 20.5724 265.174 20.3071 264.137 20.3071C263.124 20.3071 262.28 20.5483 261.58 21.0547C260.881 21.5612 260.399 22.2606 260.109 23.1289C259.772 24.0694 259.579 25.3718 259.579 27.0118C259.579 28.6518 259.748 29.9542 260.061 30.8948C260.35 31.8353 260.833 32.583 261.556 33.1136C262.256 33.6442 263.124 33.9095 264.137 33.9095C265.126 33.9095 265.97 33.6442 266.718 33.1377C267.465 32.6071 267.972 31.9077 268.261 30.9912C268.285 30.9189 268.309 30.8224 268.309 30.7018C268.333 30.6777 268.358 30.6295 268.358 30.5571C268.382 30.1712 268.599 30.0265 269.009 30.0748L274.459 30.9189C274.773 30.9912 274.942 31.1601 274.942 31.4495C274.942 31.6906 274.845 32.173 274.652 32.8724C274.001 34.9948 272.699 36.6348 270.793 37.8407C268.888 39.0465 266.693 39.6495 264.185 39.6495C261.677 39.6736 259.482 39.0465 257.649 37.7683Z" fill="white"/>
<path d="M297.685 16.9065C299.228 18.45 300 20.5483 300 23.2012V38.7089C300 38.8777 299.952 38.9983 299.831 39.1189C299.711 39.2395 299.59 39.2877 299.421 39.2877H293.874C293.705 39.2877 293.585 39.2395 293.464 39.1189C293.343 38.9983 293.295 38.8777 293.295 38.7089V24.5759C293.295 23.3218 292.933 22.2848 292.234 21.4889C291.535 20.693 290.594 20.3071 289.412 20.3071C288.255 20.3071 287.314 20.693 286.59 21.4889C285.891 22.2848 285.529 23.2977 285.529 24.5759V38.733C285.529 38.9018 285.481 39.0224 285.36 39.143C285.24 39.2636 285.119 39.3118 284.95 39.3118H279.403C279.235 39.3118 279.114 39.2636 278.993 39.143C278.873 39.0224 278.825 38.9018 278.825 38.733V6.75296C278.825 6.58413 278.873 6.46355 278.993 6.34296C279.114 6.22237 279.235 6.17413 279.403 6.17413H284.95C285.119 6.17413 285.24 6.22237 285.36 6.34296C285.481 6.46355 285.529 6.58413 285.529 6.75296V17.22C285.529 17.3165 285.553 17.3889 285.626 17.413C285.698 17.4371 285.746 17.4371 285.77 17.3647C287.073 15.5318 288.978 14.6153 291.535 14.6153C294.115 14.5912 296.141 15.363 297.685 16.9065Z" fill="white"/>
</svg>
